# Blender v2.79 (sub 0) OBJ File: 'full2.blend'
# www.blender.org
mtllib Eyelashes.mtl
o Eyelashes
v -0.158818 2.224608 2.684697
v -0.152220 2.227629 2.682064
v -0.156172 2.226293 2.688843
v -0.148578 2.231346 2.695571
v -0.155580 2.231299 2.696668
v -0.152644 2.229258 2.692535
v -0.139090 2.233105 2.693161
v -0.144252 2.233148 2.697529
v -0.143631 2.231963 2.691657
v -0.139077 2.234479 2.698008
v -0.132622 2.236394 2.702195
v -0.139174 2.236567 2.702926
v -0.128203 2.232958 2.696743
v -0.122222 2.231913 2.698344
v -0.126431 2.234908 2.700477
v -0.151061 2.233534 2.699910
v -0.154295 2.225974 2.678414
v -0.160675 2.223122 2.681627
v -0.156903 2.224441 2.675578
v -0.156470 2.221341 2.687490
v -0.149221 2.223869 2.685142
v -0.151212 2.224629 2.682715
v -0.152694 2.225579 2.679884
v -0.159482 2.222996 2.680950
v -0.158600 2.222622 2.683928
v -0.126977 2.223353 2.689284
v -0.124066 2.220480 2.692350
v -0.123974 2.223899 2.688498
v -0.143278 2.221223 2.690157
v -0.138998 2.217510 2.695080
v -0.138746 2.220614 2.690964
v -0.134268 2.221097 2.690548
v -0.130854 2.218699 2.695092
v -0.130854 2.222265 2.689960
v -0.164468 2.224071 2.684811
v -0.162552 2.226054 2.687629
v -0.160011 2.227969 2.692384
v -0.146995 2.230649 2.689553
v -0.149998 2.229077 2.686142
v -0.145466 2.235281 2.702208
v -0.133978 2.233181 2.693732
v -0.128905 2.232185 2.692152
v -0.123213 2.230035 2.694374
v -0.133588 2.234383 2.697608
v -0.153593 2.220392 2.690040
v -0.147171 2.222744 2.687704
v -0.127225 2.220009 2.693215
v -0.021641 2.226763 2.686154
v -0.030079 2.228599 2.682467
v -0.027743 2.227759 2.678624
v -0.023896 2.232324 2.696441
v -0.031805 2.232429 2.696000
v -0.027596 2.230489 2.692341
v -0.036429 2.234101 2.697667
v -0.043040 2.233000 2.693265
v -0.038445 2.232379 2.691669
v -0.043381 2.234971 2.698318
v -0.048270 2.236096 2.702443
v -0.048232 2.234395 2.697886
v -0.054087 2.232034 2.696974
v -0.060030 2.231673 2.699230
v -0.059010 2.229557 2.695660
v -0.034585 2.235802 2.702418
v -0.020087 2.224008 2.683210
v -0.026168 2.226465 2.675713
v -0.032439 2.225214 2.686159
v -0.025618 2.224596 2.686486
v -0.030222 2.225881 2.683269
v -0.028735 2.226679 2.680262
v -0.024450 2.225184 2.683739
v -0.024396 2.225755 2.681001
v -0.056695 2.224147 2.689078
v -0.057594 2.221841 2.694631
v -0.055301 2.221920 2.695076
v -0.039474 2.223147 2.690103
v -0.041755 2.220593 2.696264
v -0.037311 2.220874 2.694303
v -0.049042 2.220803 2.696222
v -0.047341 2.223075 2.690934
v -0.049979 2.223353 2.690834
v -0.015475 2.223895 2.685936
v -0.017600 2.226570 2.689363
v -0.024199 2.228405 2.689641
v -0.035295 2.231430 2.689494
v -0.032254 2.229934 2.686112
v -0.042906 2.236789 2.702863
v -0.048400 2.232358 2.693858
v -0.053591 2.231199 2.691896
v -0.058308 2.229275 2.688889
v -0.055885 2.233903 2.701170
v -0.035594 2.223970 2.688322
v -0.029402 2.222996 2.691014
v -0.052734 2.221291 2.695802
v -0.020309 2.229220 2.693135
v -0.121542 2.221131 2.691371
v -0.121500 2.223445 2.687465
v -0.053293 2.223882 2.690073
v -0.134155 2.218010 2.695223
v -0.150527 2.219283 2.691989
v -0.045943 2.220581 2.696420
v -0.043431 2.222924 2.690695
v -0.032712 2.221900 2.692577
v -0.145273 2.217875 2.694164
v -0.123634 2.229309 2.689204
v -0.028840 2.234647 2.700464
v -0.058926 2.223777 2.688309
vt 0.583120 0.686620
vt 0.573380 0.672520
vt 0.584280 0.674310
vt 0.585320 0.661480
vt 0.595240 0.669100
vt 0.584800 0.667900
vt 0.576060 0.638750
vt 0.585610 0.649670
vt 0.576270 0.648910
vt 0.584960 0.637770
vt 0.591530 0.625130
vt 0.593660 0.636490
vt 0.581040 0.617350
vt 0.586980 0.603770
vt 0.589300 0.615550
vt 0.596340 0.662610
vt 0.571150 0.685100
vt 0.580540 0.695100
vt 0.569560 0.693490
vt 0.567810 0.625960
vt 0.555850 0.641330
vt 0.554820 0.629700
vt 0.551680 0.614220
vt 0.562090 0.602650
vt 0.565500 0.609280
vt 0.553940 0.680910
vt 0.564860 0.690490
vt 0.553400 0.684770
vt 0.557310 0.652700
vt 0.568960 0.665290
vt 0.556770 0.663250
vt 0.556280 0.667995
vt 0.567730 0.676230
vt 0.555790 0.672740
vt 0.589520 0.696160
vt 0.592030 0.687170
vt 0.594130 0.675580
vt 0.574660 0.660310
vt 0.574020 0.666420
vt 0.595450 0.649100
vt 0.574910 0.628720
vt 0.573310 0.621500
vt 0.579340 0.606870
vt 0.582780 0.626310
vt 0.568440 0.640970
vt 0.556580 0.647015
vt 0.565670 0.685230
vt 0.516800 0.686620
vt 0.526540 0.672520
vt 0.528770 0.685100
vt 0.504640 0.668880
vt 0.514600 0.661480
vt 0.515100 0.667680
vt 0.514310 0.649670
vt 0.523860 0.638750
vt 0.523640 0.648910
vt 0.514950 0.637770
vt 0.508390 0.625130
vt 0.517140 0.626310
vt 0.518870 0.617350
vt 0.512940 0.603770
vt 0.520570 0.606870
vt 0.504470 0.649100
vt 0.519380 0.695100
vt 0.530350 0.693490
vt 0.544070 0.641330
vt 0.532110 0.625960
vt 0.545100 0.629700
vt 0.548240 0.614220
vt 0.534420 0.609280
vt 0.537830 0.602650
vt 0.546520 0.684770
vt 0.535870 0.695760
vt 0.535060 0.690490
vt 0.542600 0.652700
vt 0.530960 0.665290
vt 0.530920 0.653260
vt 0.532190 0.676230
vt 0.543640 0.667995
vt 0.544130 0.672740
vt 0.510400 0.696160
vt 0.507880 0.687170
vt 0.515630 0.674310
vt 0.525260 0.660310
vt 0.525880 0.666210
vt 0.506260 0.636490
vt 0.525000 0.628720
vt 0.526610 0.621500
vt 0.528790 0.612690
vt 0.510620 0.615550
vt 0.543335 0.647015
vt 0.531480 0.640970
vt 0.534240 0.685230
vt 0.505780 0.675580
vt 0.564050 0.695760
vt 0.552860 0.688620
vt 0.545980 0.680910
vt 0.568345 0.670760
vt 0.568720 0.647115
vt 0.531575 0.670760
vt 0.543150 0.663250
vt 0.531200 0.647115
vt 0.569000 0.653260
vt 0.571130 0.612690
vt 0.503580 0.662610
vt 0.547060 0.688620
vn 0.2513 -0.9269 0.2787
vn 0.4492 -0.8865 0.1109
vn 0.2618 -0.9139 0.3102
vn 0.2120 -0.9074 0.3630
vn 0.1097 -0.8580 0.5019
vn 0.2613 -0.8963 0.3584
vn 0.0896 -0.9623 0.2568
vn 0.1968 -0.9177 0.3452
vn 0.2241 -0.9526 0.2057
vn 0.0926 -0.9314 0.3521
vn -0.0426 -0.9122 0.4075
vn 0.0806 -0.9168 0.3910
vn -0.2415 -0.8960 0.3726
vn -0.2768 -0.8215 0.4986
vn -0.2044 -0.8365 0.5084
vn 0.0983 -0.8730 0.4777
vn 0.4516 -0.8847 0.1157
vn 0.2833 -0.9201 0.2706
vn 0.4399 -0.8945 0.0795
vn -0.1624 0.8804 0.4455
vn -0.1499 0.8712 0.4674
vn -0.1749 0.8931 0.4145
vn -0.2520 0.9196 0.3012
vn -0.3187 0.9240 0.2113
vn -0.2484 0.9155 0.3166
vn -0.0218 0.7617 0.6476
vn 0.0785 0.7569 0.6488
vn 0.1578 0.7803 0.6051
vn -0.0423 0.7888 0.6132
vn -0.0629 0.7928 0.6063
vn -0.0335 0.8085 0.5875
vn -0.1070 0.8236 0.5570
vn -0.0868 0.8190 0.5672
vn -0.1210 0.7989 0.5892
vn 0.0927 -0.8767 0.4720
vn 0.0255 -0.8876 0.4600
vn 0.0483 -0.8846 0.4638
vn 0.2917 -0.9400 0.1771
vn 0.3863 -0.9109 0.1453
vn 0.1327 -0.8939 0.4282
vn -0.0880 -0.9586 0.2709
vn -0.2780 -0.9406 0.1950
vn -0.3456 -0.8778 0.3318
vn -0.0685 -0.9251 0.3735
vn -0.1214 0.8444 0.5218
vn -0.0929 0.8247 0.5578
vn 0.0129 0.7811 0.6242
vn -0.3669 -0.8747 0.3168
vn -0.2603 -0.9537 0.1507
vn -0.3825 -0.9158 0.1228
vn -0.1196 -0.8589 0.4980
vn -0.1332 -0.9233 0.3602
vn -0.1899 -0.9075 0.3747
vn -0.1334 -0.9250 0.3557
vn 0.0282 -0.9309 0.3642
vn -0.0994 -0.9559 0.2764
vn 0.0061 -0.9299 0.3678
vn 0.1475 -0.9237 0.3537
vn 0.1729 -0.9058 0.3868
vn 0.2856 -0.8820 0.3748
vn 0.2456 -0.8209 0.5156
vn 0.3201 -0.8828 0.3439
vn -0.0944 -0.9124 0.3983
vn -0.4587 -0.7739 0.4366
vn -0.4925 -0.8625 0.1165
vn 0.0089 0.9222 0.3866
vn 0.0825 0.9514 0.2969
vn 0.0828 0.9558 0.2821
vn 0.1303 0.9578 0.2563
vn 0.1331 0.9635 0.2323
vn 0.1706 0.9639 0.2042
vn -0.1335 0.9267 0.3513
vn -0.1344 0.9225 0.3618
vn -0.0217 0.9247 0.3802
vn 0.0395 0.9007 0.4327
vn 0.0451 0.9176 0.3949
vn 0.0608 0.8957 0.4405
vn 0.0589 0.9096 0.4112
vn 0.0631 0.9118 0.4058
vn 0.0670 0.9087 0.4121
vn -0.3578 -0.8049 0.4734
vn -0.3041 -0.8683 0.3919
vn -0.2458 -0.9139 0.3232
vn -0.1749 -0.9555 0.2377
vn -0.2397 -0.9432 0.2300
vn 0.0033 -0.9297 0.3682
vn 0.1907 -0.9047 0.3810
vn 0.2690 -0.9486 0.1666
vn 0.3362 -0.9389 0.0738
vn 0.2366 -0.8595 0.4531
vn -0.0286 0.8895 0.4560
vn 0.0021 0.9077 0.4196
vn 0.0795 0.9111 0.4045
vn -0.2119 -0.8571 0.4695
vn 0.1489 0.7727 0.6171
vn 0.3478 0.8054 0.4800
vn 0.0250 0.9221 0.3861
vn -0.1118 0.8193 0.5624
vn -0.0687 0.7970 0.6001
vn 0.0348 0.9170 0.3973
vn 0.0277 0.9201 0.3906
vn -0.0479 0.8846 0.4639
vn -0.0480 0.7783 0.6261
vn -0.4027 -0.9014 0.1588
vn -0.0295 -0.8869 0.4610
vn -0.2658 0.9046 0.3333
usemtl Body
s 1
f 1/1/1 2/2/2 3/3/3
f 4/4/4 5/5/5 6/6/6
f 7/7/7 8/8/8 9/9/9
f 10/10/10 11/11/11 12/12/12
f 13/13/13 14/14/14 15/15/15
f 8/8/8 16/16/16 4/4/4
f 17/17/17 18/18/18 19/19/19
f 20/20/20 21/21/21 22/22/22
f 23/23/23 24/24/24 25/25/25
f 26/26/26 27/27/27 28/28/28
f 22/22/22 25/25/25 20/20/20
f 29/29/29 30/30/30 31/31/31
f 32/32/32 33/33/33 34/34/34
f 1/1/1 35/35/35 18/18/18
f 36/36/36 3/3/3 37/37/37
f 38/38/38 6/6/6 39/39/39
f 9/9/9 4/4/4 38/38/38
f 10/10/10 40/40/40 8/8/8
f 41/41/41 10/10/10 7/7/7
f 42/42/42 43/43/43 13/13/13
f 41/41/41 13/13/13 44/44/44
f 44/44/44 15/15/15 11/11/11
f 45/45/45 46/46/46 21/21/21
f 34/34/34 47/47/47 26/26/26
f 48/48/48 49/49/49 50/50/50
f 51/51/51 52/52/52 53/53/53
f 54/54/54 55/55/55 56/56/56
f 57/57/57 58/58/58 59/59/59
f 60/60/60 61/61/61 62/62/62
f 52/52/52 63/63/63 54/54/54
f 64/64/64 50/50/50 65/65/65
f 66/66/66 67/67/67 68/68/68
f 69/69/69 70/70/70 71/71/71
f 72/72/72 73/73/73 74/74/74
f 68/68/68 70/70/70 69/69/69
f 75/75/75 76/76/76 77/77/77
f 78/78/78 79/79/79 80/80/80
f 81/81/81 48/48/48 64/64/64
f 82/82/82 83/83/83 48/48/48
f 53/53/53 84/84/84 85/85/85
f 52/52/52 56/56/56 84/84/84
f 54/54/54 86/86/86 57/57/57
f 55/55/55 59/59/59 87/87/87
f 88/88/88 62/62/62 89/89/89
f 87/87/87 60/60/60 88/88/88
f 59/59/59 90/90/90 60/60/60
f 91/91/91 92/92/92 66/66/66
f 80/80/80 93/93/93 78/78/78
f 83/83/83 85/85/85 49/49/49
f 94/94/94 53/53/53 83/83/83
f 6/6/6 37/37/37 3/3/3
f 39/39/39 3/3/3 2/2/2
f 28/28/28 95/95/95 96/96/96
f 97/97/97 74/74/74 93/93/93
f 98/98/98 31/31/31 30/30/30
f 99/99/99 29/29/29 46/46/46
f 100/100/100 101/101/101 79/79/79
f 91/91/91 77/77/77 102/102/102
f 1/1/1 17/17/17 2/2/2
f 4/4/4 16/16/16 5/5/5
f 7/7/7 10/10/10 8/8/8
f 10/10/10 44/44/44 11/11/11
f 13/13/13 43/43/43 14/14/14
f 8/8/8 40/40/40 16/16/16
f 17/17/17 1/1/1 18/18/18
f 20/20/20 45/45/45 21/21/21
f 26/26/26 47/47/47 27/27/27
f 22/22/22 23/23/23 25/25/25
f 29/29/29 103/103/103 30/30/30
f 32/32/32 98/98/98 33/33/33
f 1/1/1 36/36/36 35/35/35
f 36/36/36 1/1/1 3/3/3
f 38/38/38 4/4/4 6/6/6
f 9/9/9 8/8/8 4/4/4
f 10/10/10 12/12/12 40/40/40
f 41/41/41 44/44/44 10/10/10
f 42/42/42 104/104/104 43/43/43
f 41/41/41 42/42/42 13/13/13
f 44/44/44 13/13/13 15/15/15
f 45/45/45 99/99/99 46/46/46
f 34/34/34 33/33/33 47/47/47
f 48/48/48 83/83/83 49/49/49
f 51/51/51 105/105/105 52/52/52
f 54/54/54 57/57/57 55/55/55
f 57/57/57 86/86/86 58/58/58
f 60/60/60 90/90/90 61/61/61
f 52/52/52 105/105/105 63/63/63
f 64/64/64 48/48/48 50/50/50
f 66/66/66 92/92/92 67/67/67
f 72/72/72 106/106/106 73/73/73
f 68/68/68 67/67/67 70/70/70
f 75/75/75 101/101/101 76/76/76
f 78/78/78 100/100/100 79/79/79
f 81/81/81 82/82/82 48/48/48
f 82/82/82 94/94/94 83/83/83
f 53/53/53 52/52/52 84/84/84
f 52/52/52 54/54/54 56/56/56
f 54/54/54 63/63/63 86/86/86
f 55/55/55 57/57/57 59/59/59
f 88/88/88 60/60/60 62/62/62
f 87/87/87 59/59/59 60/60/60
f 59/59/59 58/58/58 90/90/90
f 91/91/91 102/102/102 92/92/92
f 80/80/80 97/97/97 93/93/93
f 83/83/83 53/53/53 85/85/85
f 94/94/94 51/51/51 53/53/53
f 6/6/6 5/5/5 37/37/37
f 39/39/39 6/6/6 3/3/3
f 28/28/28 27/27/27 95/95/95
f 97/97/97 72/72/72 74/74/74
f 98/98/98 32/32/32 31/31/31
f 99/99/99 103/103/103 29/29/29
f 100/100/100 76/76/76 101/101/101
f 91/91/91 75/75/75 77/77/77
